HIERARCHY
ROOT Hips
{
    OFFSET 0.000000 0.000000 0.000000
    CHANNELS 6 Xposition Yposition Zposition Zrotation Xrotation Yrotation
    JOINT Spine
    {
        OFFSET -0.000000 7.236184 0.000000
        CHANNELS 3 Zrotation Xrotation Yrotation
        JOINT Spine1
        {
            OFFSET -0.000000 20.420147 0.000000
            CHANNELS 3 Zrotation Xrotation Yrotation
            JOINT Neck
            {
                OFFSET -0.000000 20.336288 1.848754
                CHANNELS 3 Zrotation Xrotation Yrotation
                JOINT Head
                {
                    OFFSET -0.000000 12.354461 -1.764923
                    CHANNELS 3 Zrotation Xrotation Yrotation
                    End Site
                    {
                        OFFSET -0.000000 22.061537 0.000000
                    }
                }
            }
            JOINT LeftShoulder
            {
                OFFSET 3.573296 18.396038 -0.314103
                CHANNELS 3 Zrotation Xrotation Yrotation
                JOINT LeftArm
                {
                    OFFSET 10.880760 0.000000 0.000000
                    CHANNELS 3 Zrotation Xrotation Yrotation
                    JOINT LeftForeArm
                    {
                        OFFSET 27.185530 0.000000 0.000000
                        CHANNELS 3 Zrotation Xrotation Yrotation
                        JOINT LeftHand
                        {
                            OFFSET 27.825975 0.000000 0.000000
                            CHANNELS 3 Zrotation Xrotation Yrotation
                            End Site
                            {
                                OFFSET 13.236923 0.000000 0.000000
                            }
                        }
                    }
                }
            }
            JOINT RightShoulder
            {
                OFFSET -3.474926 18.396038 -0.314103
                CHANNELS 3 Zrotation Xrotation Yrotation
                JOINT RightArm
                {
                    OFFSET -10.880760 0.000000 0.000000
                    CHANNELS 3 Zrotation Xrotation Yrotation
                    JOINT RightForeArm
                    {
                        OFFSET -27.185530 0.000000 0.000000
                        CHANNELS 3 Zrotation Xrotation Yrotation
                        JOINT RightHand
                        {
                            OFFSET -27.825975 0.000000 0.000000
                            CHANNELS 3 Zrotation Xrotation Yrotation
                            End Site
                            {
                                OFFSET -13.236923 0.000000 0.000000
                            }
                        }
                    }
                }
            }
        }
    }
    JOINT LeftUpLeg
    {
        OFFSET 8.824615 0.000000 0.000000
        CHANNELS 3 Zrotation Xrotation Yrotation
        JOINT LeftLeg
        {
            OFFSET -0.000000 -35.111282 0.000000
            CHANNELS 3 Zrotation Xrotation Yrotation
            JOINT LeftFoot
            {
                OFFSET -0.000000 -42.324711 0.000000
                CHANNELS 3 Zrotation Xrotation Yrotation
                JOINT LeftToeBase
                {
                    OFFSET -0.000000 -5.735999 13.236923
                    CHANNELS 3 Zrotation Xrotation Yrotation
                    End Site
                    {
                        OFFSET -0.000000 0.000000 3.529846
                    }
                }
            }
        }
    }
    JOINT RightUpLeg
    {
        OFFSET -8.824615 0.000000 0.000000
        CHANNELS 3 Zrotation Xrotation Yrotation
        JOINT RightLeg
        {
            OFFSET -0.000000 -35.111282 0.000000
            CHANNELS 3 Zrotation Xrotation Yrotation
            JOINT RightFoot
            {
                OFFSET -0.000000 -42.324711 0.000000
                CHANNELS 3 Zrotation Xrotation Yrotation
                JOINT RightToeBase
                {
                    OFFSET -0.000000 -5.735999 13.236923
                    CHANNELS 3 Zrotation Xrotation Yrotation
                    End Site
                    {
                        OFFSET -0.000000 0.000000 3.529846
                    }
                }
            }
        }
    }
}
MOTION
Frames:    4
Frame Time:    0.008333
-5.280574    82.775208    101.975014    -0.655106    -9.461565    -179.890976    -1.877085    -19.434908    -0.195966    1.457302    13.318246    -0.044791    3.251273    2.061738    -4.050955    11.514626    -8.872081    -2.124354    2.311461    17.616484    -6.500920    -39.629578    47.948204    -46.243855    4.851410    -8.166536    -19.490252    32.582527    -8.061702    -2.489902    2.685925    20.151611    0.095579    34.460747    47.718143    47.083115    -6.444576    -1.510837    17.580120    -15.670663    -0.496999    -0.119881    7.196925    -14.708937    2.878260    0.101791    14.625709    2.746594    -7.972068    -6.888670    -11.114050    -0.229679    -0.654361    0.254893    -8.555475    -9.906744    0.774522    2.550530    6.437838    4.802305    5.481200    -4.203702    -12.878551    -1.475026    0.281149    1.594729    
-5.281933    82.776222    101.990532    -0.665285    -9.485740    -179.921753    -1.899806    -19.410961    -0.180935    1.456680    13.310861    -0.026062    3.214656    1.995083    -4.054493    11.516911    -8.899765    -2.121992    2.306296    17.604586    -6.517063    -39.686806    47.944630    -46.238712    4.762948    -8.345650    -19.814613    31.950441    -8.218685    -2.459014    2.662508    20.137558    0.121570    34.260994    47.788879    47.218578    -6.584407    -1.333451    17.852461    -15.704097    -0.286223    -0.088155    7.187394    -14.735737    2.886266    0.107742    14.622097    2.772966    -7.982484    -6.878878    -11.117922    -0.231070    -0.656034    0.256437    -8.568485    -9.963841    0.754095    2.557355    6.462429    4.813575    5.559467    -4.201265    -12.841439    -1.470738    0.259933    1.590138    
-5.283318    82.777252    102.005890    -0.675393    -9.509294    -179.951767    -1.922243    -19.387110    -0.166152    1.455853    13.303561    -0.007413    3.178376    1.929505    -4.058107    11.519293    -8.926991    -2.119704    2.301713    17.592270    -6.534092    -39.737209    47.944828    -46.238949    4.672215    -8.519847    -20.132187    31.310917    -8.374039    -2.434769    2.639042    20.123560    0.147773    34.062664    47.858047    47.353371    -6.723207    -1.165657    18.122471    -15.729940    -0.085124    -0.056149    7.177762    -14.762000    2.894288    0.113838    14.618511    2.798329    -7.992541    -6.869134    -11.121647    -0.232478    -0.657632    0.258001    -8.581524    -10.019941    0.733339    2.564206    6.486816    4.824196    5.632045    -4.198197    -12.804544    -1.468014    0.241392    1.587234    
-5.284749    82.778282    102.021049    -0.685401    -9.531820    -179.980576    -1.944332    -19.363174    -0.151239    1.454862    13.296490    0.010831    3.142479    1.864286    -4.061913    11.521605    -8.952306    -2.117797    2.298324    17.579144    -6.552826    -39.775509    47.951031    -46.249233    4.577388    -8.686149    -20.441309    30.652569    -8.524627    -2.416569    2.615173    20.109028    0.174697    33.865253    47.926285    47.487610    -6.857892    -1.015124    18.391603    -15.741448    0.100475    -0.026151    7.167967    -14.787429    2.902235    0.120118    14.615021    2.822049    -8.001933    -6.859445    -11.124983    -0.233775    -0.659400    0.259441    -8.594574    -10.074618    0.711472    2.570897    6.511133    4.833286    5.695016    -4.194067    -12.766943    -1.467715    0.227457    1.586940    
